<svg width="113" height="54" viewBox="0 0 113 54" fill="none" xmlns="http://www.w3.org/2000/svg">
<path d="M25.5478 12.7162C25.5478 5.69036 19.8169 2.84497e-05 12.761 2.84497e-05C9.37037 -0.00712398 6.11901 1.33461 3.73723 3.72385C1.50362 5.95355 0.0886083 8.9924 0 12.3646C3.22673 12.5179 6.28759 13.8255 8.61409 16.0446C11.1614 18.4637 12.6528 21.7729 12.7698 25.2657V25.4324C16.2937 25.4324 19.4877 24.0098 21.8011 21.7086C22.5953 20.9236 23.2806 20.0377 23.839 19.074C24.4164 18.0767 24.8566 17.0075 25.1477 15.8948C25.4054 14.8764 25.5478 13.8142 25.5478 12.7162Z" fill="white"/>
<path d="M12.7869 25.6443C12.7869 32.6695 7.05663 38.3605 0 38.3605V25.6443H12.7869Z" fill="white"/>
<path fill-rule="evenodd" clip-rule="evenodd" d="M64.7682 39.096H62.6926V38.1302C61.9211 38.886 60.9131 39.3443 59.7857 39.3443C57.2653 39.3443 55.1496 37.1144 55.1496 34.3565C55.1496 31.5986 57.2945 29.3687 59.8251 29.3687C60.8482 29.3699 61.8345 29.753 62.5934 30.444V25.9138L64.7682 25.5157V39.096ZM57.3739 34.3571C57.3739 35.9495 58.6189 37.2436 60.2014 37.2436C61.1789 37.244 62.0857 36.7312 62.5934 35.89V32.8236C62.0857 31.9823 61.1789 31.4689 60.2014 31.4692C58.6196 31.4692 57.3739 32.7634 57.3739 34.3571Z" fill="white"/>
<path fill-rule="evenodd" clip-rule="evenodd" d="M73.5865 36.009L75.3456 37.2635C74.4362 38.5378 72.9433 39.3347 71.2338 39.3443C68.3568 39.3443 66.2215 37.1144 66.2215 34.3565C66.2215 31.5986 68.1884 29.3687 71.0749 29.3687C73.7937 29.3687 75.6723 31.4494 75.6723 34.1971C75.6723 34.5357 75.6519 34.8148 75.6125 35.1335H68.5246C68.8214 36.3476 69.8891 37.2437 71.2528 37.2437C72.2023 37.2437 73.0724 36.8059 73.5865 36.009ZM73.3983 33.3509C73.181 32.1567 72.3109 31.3598 71.0653 31.3598C69.7009 31.3598 68.7914 32.1963 68.5048 33.3509H73.3983Z" fill="white"/>
<path d="M82.7698 29.6075V31.6588H79.2903V39.0967H77.1156V29.9064L79.2509 29.5083V31.1608C79.5667 30.1451 80.5753 29.5083 81.8406 29.5083C82.1768 29.5083 82.4336 29.5479 82.7698 29.6075Z" fill="white"/>
<path d="M51.5213 34.0083C51.5213 32.2955 50.7307 31.4597 49.386 31.4597C48.338 31.4597 47.4883 31.957 46.9837 32.734V39.0959H44.809V29.8967L46.8852 29.4979V30.5732C47.6561 29.8174 48.6844 29.3591 49.8702 29.3591C52.4307 29.3591 53.696 31.34 53.696 33.7094V39.0959H51.5213V34.0083Z" fill="white"/>
<path d="M43.0295 39.0966H40.8548V29.6074H43.0295V39.0966Z" fill="white"/>
<path d="M31.4435 39.0953V25.6148H39.2235V27.8249H33.7174V31.4987H38.5715V33.7087H33.7174V39.0953H31.4435Z" fill="white"/>
<path d="M40.4597 26.909C40.4597 26.0923 41.1314 25.4357 41.9226 25.4357C42.7329 25.4357 43.425 26.0923 43.425 26.909C43.425 27.7251 42.7329 28.4022 41.9226 28.4022C41.1321 28.4022 40.4597 27.7251 40.4597 26.909Z" fill="white"/>
<path fill-rule="evenodd" clip-rule="evenodd" d="M80.0218 19.2727C80.0218 21.9711 77.9952 23.623 75.2071 23.623V23.6244C73.804 23.6244 72.4497 23.1859 71.382 22.5683L72.2317 20.5778C73.082 21.0949 74.1497 21.5532 75.2173 21.5532C76.7794 21.5532 77.8471 20.6373 77.8471 19.1838V18.4273C77.0953 19.0846 76.1465 19.4629 75.0985 19.4629C72.5583 19.4629 70.423 17.272 70.423 14.5544C70.423 11.8362 72.5482 9.64601 75.0591 9.64601C76.1661 9.64601 77.1747 10.0845 77.9456 10.8211V10.1836L80.0218 9.78554V19.2727ZM72.637 14.5538C72.637 16.1065 73.8826 17.361 75.4644 17.361C76.4166 17.3608 77.3062 16.8829 77.8368 16.0867V13.0203C77.3423 12.2638 76.4526 11.746 75.4644 11.746C73.8826 11.746 72.637 13.0011 72.637 14.5538Z" fill="white"/>
<path fill-rule="evenodd" clip-rule="evenodd" d="M102.116 19.2727C102.116 21.9711 100.089 23.623 97.3014 23.623V23.6244C95.8983 23.6244 94.5535 23.1859 93.4763 22.5683L94.326 20.5778C95.1763 21.0949 96.244 21.5532 97.3116 21.5532C98.8737 21.5532 99.9414 20.6373 99.9414 19.1838V18.4273C99.1896 19.0846 98.2408 19.4629 97.1928 19.4629C94.6526 19.4629 92.5173 17.272 92.5173 14.5544C92.5173 11.8362 94.6425 9.64601 97.1534 9.64601C98.2604 9.64601 99.269 10.0845 100.04 10.8211V10.1836L102.116 9.78554V19.2727ZM94.7315 14.5538C94.7315 16.1065 95.9771 17.361 97.559 17.361C98.5112 17.3608 99.4007 16.8829 99.9313 16.0867V13.0203C99.4369 12.2638 98.5472 11.746 97.559 11.746C95.9771 11.746 94.7315 13.0011 94.7315 14.5538Z" fill="white"/>
<path fill-rule="evenodd" clip-rule="evenodd" d="M91.064 19.3822H88.8892V18.5765C88.1381 19.2338 87.1886 19.6319 86.1413 19.6319C83.6005 19.6319 81.4651 17.3918 81.4651 14.6441C81.4651 11.8862 83.5903 9.65634 86.1012 9.65634C87.2083 9.65634 88.2168 10.1139 88.9877 10.8506V10.194L91.064 9.79519V19.3822ZM83.6791 14.6339C83.6791 16.226 84.9243 17.52 86.5065 17.5204C87.5049 17.5204 88.3947 17.0026 88.8789 16.2064V13.0606C88.3653 12.2406 87.4692 11.744 86.5065 11.746C84.9247 11.746 83.6791 13.0401 83.6791 14.6339Z" fill="white"/>
<path fill-rule="evenodd" clip-rule="evenodd" d="M110.924 16.2856L112.683 17.5401C111.773 18.8151 110.291 19.6208 108.561 19.6208C105.684 19.6208 103.549 17.3814 103.549 14.6331C103.549 11.8751 105.517 9.64528 108.403 9.64528C111.122 9.64528 113 11.726 113 14.4737C113 14.8321 112.98 15.1112 112.941 15.4498H105.862C106.199 16.6447 107.247 17.5203 108.591 17.5203C109.54 17.5203 110.41 17.0825 110.924 16.2856ZM110.747 13.6276C110.529 12.4532 109.679 11.6563 108.414 11.6563C107.048 11.6563 106.129 12.5024 105.853 13.6276H110.747Z" fill="white"/>
<path d="M62.3957 9.88403V11.9449H58.9156V19.3828H56.7409V10.1829L58.8959 9.78485V11.4374C59.2124 10.4217 60.221 9.78485 61.4666 9.78485C61.8028 9.78485 62.0595 9.82452 62.3957 9.88403Z" fill="white"/>
<path d="M69.0488 17.0825L69.8985 18.9738C69.2852 19.2631 68.3961 19.6209 67.3183 19.6209C64.7972 19.6209 63.4728 18.0579 63.4728 15.629V7.53445L65.6278 7.13635V9.88401H69.4142V11.9353H65.6285V15.629C65.6285 16.7836 66.2214 17.5203 67.3876 17.5203C68.06 17.5203 68.6332 17.2815 69.0488 17.0825Z" fill="white"/>
<path d="M38.4526 16.1871H36.8117L33.7174 10.0946V19.3835H31.4442V5.90167H34.093L37.662 13.081L41.2501 5.90236H43.8405V19.3828H41.5368V10.0844L38.4526 16.1871Z" fill="white"/>
<path fill-rule="evenodd" clip-rule="evenodd" d="M55.2882 14.6338C55.2882 17.4314 53.0639 19.6216 50.375 19.6216C49.0632 19.6218 47.8055 19.0957 46.8798 18.1597C45.954 17.2237 45.4367 15.9549 45.4421 14.6338C45.4349 13.3122 45.9516 12.0423 46.8777 11.1059C47.8038 10.1695 49.0627 9.64399 50.375 9.64601C53.0741 9.64601 55.2882 11.8465 55.2882 14.6338ZM47.6664 14.6338C47.6664 16.2659 48.8719 17.5204 50.3749 17.5204C51.8576 17.5204 53.0835 16.2659 53.0835 14.6332C53.0835 13.0004 51.8576 11.746 50.3749 11.746C48.8719 11.746 47.6664 13.0004 47.6664 14.6338Z" fill="white"/>
<path d="M34.9364 51.2721C34.2041 51.2721 33.634 50.9035 33.3146 50.3089H33.2949V51.1738H32.4398V44.0823H33.2949V46.9179H33.3146C33.634 46.3282 34.2287 45.9645 34.9511 45.9645C36.2338 45.9645 37.1085 47.0015 37.1085 48.6134V48.6183C37.1085 50.2303 36.2436 51.2721 34.9364 51.2721ZM34.7693 50.5153C35.6735 50.5153 36.2338 49.7929 36.2338 48.6183V48.6134C36.2338 47.4487 35.6735 46.7213 34.7693 46.7213C33.9092 46.7213 33.29 47.4733 33.29 48.6134V48.6183C33.29 49.7634 33.9043 50.5153 34.7693 50.5153ZM38.1445 52.8939C37.9774 52.8939 37.7956 52.8742 37.6874 52.8546V52.1567C37.7612 52.1715 37.8594 52.1862 37.9627 52.1862C38.5032 52.1862 38.803 52.0486 39.0094 51.4687L39.1126 51.1787L37.2157 46.0628H38.1297L39.5402 50.3187H39.5598L40.9752 46.0628H41.8745L39.8793 51.4933C39.5156 52.4712 39.0684 52.8939 38.1445 52.8939ZM44.3396 51.1738V44.0823H47.19C48.684 44.0823 49.6816 45.0455 49.6816 46.5051V46.5149C49.6816 47.9745 48.684 48.9378 47.19 48.9378H45.8238V51.1738H44.3396ZM46.8263 45.2568H45.8238V47.7779H46.8263C47.6765 47.7779 48.1778 47.3258 48.1778 46.5199V46.51C48.1778 45.7041 47.6765 45.2568 46.8263 45.2568ZM50.3195 51.1738V45.9055H51.7545V46.8245H51.784C51.9412 46.1758 52.3688 45.7974 52.9831 45.7974C53.1404 45.7974 53.2878 45.822 53.3959 45.8515V47.1145C53.278 47.0654 53.0814 47.0359 52.875 47.0359C52.1673 47.0359 51.7545 47.4585 51.7545 48.2252V51.1738H50.3195ZM56.1077 51.2819C54.5056 51.2819 53.4981 50.2548 53.4981 48.5397V48.5299C53.4981 46.8344 54.5301 45.7974 56.1028 45.7974C57.6803 45.7974 58.7173 46.8245 58.7173 48.5299V48.5397C58.7173 50.2597 57.7 51.2819 56.1077 51.2819ZM56.1126 50.1565C56.8104 50.1565 57.2577 49.5668 57.2577 48.5397V48.5299C57.2577 47.5126 56.8006 46.9228 56.1028 46.9228C55.4098 46.9228 54.9577 47.5126 54.9577 48.5299V48.5397C54.9577 49.5717 55.4049 50.1565 56.1126 50.1565ZM59.3404 52.8939V45.9055H60.7754V46.8245H60.8098C61.0948 46.1857 61.6698 45.7974 62.4168 45.7974C63.7536 45.7974 64.5694 46.8196 64.5694 48.5348V48.5397C64.5694 50.2499 63.7536 51.2819 62.4365 51.2819C61.6846 51.2819 61.0899 50.8986 60.8049 50.2745H60.7754V52.8939H59.3404ZM61.945 50.0927C62.6576 50.0927 63.1098 49.498 63.1098 48.5397V48.5348C63.1098 47.5715 62.6576 46.9867 61.945 46.9867C61.2472 46.9867 60.7705 47.5863 60.7705 48.5397V48.5446C60.7705 49.4931 61.2472 50.0927 61.945 50.0927ZM67.5956 51.2819C65.9837 51.2819 65.0057 50.2352 65.0057 48.5495V48.5446C65.0057 46.8688 65.9935 45.7974 67.5367 45.7974C69.0798 45.7974 70.048 46.8442 70.048 48.4365V48.8788H66.4211C66.4358 49.7192 66.8929 50.2106 67.6251 50.2106C68.2149 50.2106 68.5736 49.8862 68.6768 49.5914L68.6867 49.5619H70.0037L69.989 49.6159C69.8268 50.3924 69.0995 51.2819 67.5956 51.2819ZM67.5612 46.8688C66.9715 46.8688 66.5292 47.2619 66.4358 47.9745H68.6719C68.5835 47.2472 68.1559 46.8688 67.5612 46.8688ZM70.6711 51.1738V45.9055H72.1061V46.8245H72.1356C72.2928 46.1758 72.7204 45.7974 73.3347 45.7974C73.492 45.7974 73.6394 45.822 73.7475 45.8515V47.1145C73.6296 47.0654 73.433 47.0359 73.2266 47.0359C72.5189 47.0359 72.1061 47.4585 72.1061 48.2252V51.1738H70.6711ZM76.5084 51.2819C75.3388 51.2819 74.7884 50.8298 74.7884 49.6995V46.9867H74.0561V45.9055H74.7884V44.618H76.2381V45.9055H77.2014V46.9867H76.2381V49.5422C76.2381 50.0337 76.4593 50.2008 76.8918 50.2008C77.0195 50.2008 77.1129 50.186 77.2014 50.1762V51.2279C77.0392 51.2525 76.8082 51.2819 76.5084 51.2819ZM78.6993 52.9086C78.4192 52.9086 78.1341 52.8742 77.967 52.8447V51.7783C78.0702 51.798 78.2373 51.8274 78.4486 51.8274C78.8762 51.8274 79.1121 51.7046 79.2399 51.3458L79.3038 51.1738L77.4412 45.9055H79.0187L80.1294 50.0238H80.1687L81.2843 45.9055H82.7979L80.9894 51.2672C80.5766 52.5106 79.8689 52.9086 78.6993 52.9086ZM85.1794 51.1738V44.0823H89.8236V45.306H86.6636V47.2079H89.5484V48.3824H86.6636V51.1738H85.1794ZM91.2085 45.2274C90.776 45.2274 90.4418 44.8883 90.4418 44.4804C90.4418 44.0725 90.776 43.7334 91.2085 43.7334C91.6409 43.7334 91.9751 44.0725 91.9751 44.4804C91.9751 44.8883 91.6409 45.2274 91.2085 45.2274ZM90.4909 51.1738V45.9055H91.926V51.1738H90.4909ZM92.7702 51.1738V45.9055H94.2053V46.7705H94.2347C94.505 46.166 95.0456 45.7974 95.8418 45.7974C97.0016 45.7974 97.6601 46.5395 97.6601 47.773V51.1738H96.2251V48.0679C96.2251 47.3799 95.9007 46.9867 95.2569 46.9867C94.6132 46.9867 94.2053 47.4585 94.2053 48.1465V51.1738H92.7702ZM100.401 51.2819C99.0745 51.2819 98.2587 50.2499 98.2587 48.5397V48.5348C98.2587 46.8196 99.0745 45.7974 100.401 45.7974C101.148 45.7974 101.738 46.1808 102.023 46.8196H102.053V44.0823H103.488V51.1738H102.053V50.2745H102.023C101.743 50.8986 101.163 51.2819 100.401 51.2819ZM100.883 50.0927C101.581 50.0927 102.058 49.4931 102.058 48.5397V48.5348C102.058 47.5863 101.576 46.9867 100.883 46.9867C100.17 46.9867 99.7183 47.5715 99.7183 48.5348V48.5397C99.7183 49.498 100.165 50.0927 100.883 50.0927ZM106.725 51.2819C105.113 51.2819 104.135 50.2352 104.135 48.5495V48.5446C104.135 46.8688 105.123 45.7974 106.666 45.7974C108.209 45.7974 109.178 46.8442 109.178 48.4365V48.8788H105.551C105.565 49.7192 106.022 50.2106 106.755 50.2106C107.344 50.2106 107.703 49.8862 107.806 49.5914L107.816 49.5619H109.133L109.119 49.6159C108.956 50.3924 108.229 51.2819 106.725 51.2819ZM106.691 46.8688C106.101 46.8688 105.659 47.2619 105.565 47.9745H107.802C107.713 47.2472 107.286 46.8688 106.691 46.8688ZM109.801 51.1738V45.9055H111.236V46.8245H111.265C111.422 46.1758 111.85 45.7974 112.464 45.7974C112.622 45.7974 112.769 45.822 112.877 45.8515V47.1145C112.759 47.0654 112.563 47.0359 112.356 47.0359C111.649 47.0359 111.236 47.4585 111.236 48.2252V51.1738H109.801Z" fill="white"/>
</svg>
